<svg width="986" height="876" viewBox="0 0 986 876" fill="none" xmlns="http://www.w3.org/2000/svg">
<g clip-path="url(#clip0_33_4)">
<path d="M243.761 37.4697C253.347 66.2135 237.769 97.1815 209.182 106.763L164.333 121.648V328.5C164.333 419.18 237.941 492.75 328.666 492.75C419.392 492.75 493 419.18 493 328.5V121.648L448.321 106.763C419.563 97.1815 404.157 66.2135 413.743 37.4697C423.329 8.726 454.313 -6.67244 483.071 2.90881L527.749 17.794C572.427 32.6791 602.555 74.426 602.555 121.648V328.5C602.555 460.585 509.09 570.769 384.642 596.604C395.427 692.246 476.566 766.5 575.166 766.5C681.127 766.5 766.888 680.782 766.888 574.875V453.912C718.444 432.867 684.722 384.619 684.722 328.5C684.722 252.877 746.004 191.625 821.666 191.625C897.328 191.625 958.611 252.877 958.611 328.5C958.611 384.619 924.888 432.867 876.444 453.912V574.875C876.444 741.178 741.554 876 575.166 876C416.139 876 286.042 752.984 274.744 596.946C149.269 571.796 54.7773 461.269 54.7773 328.5V121.648C54.7773 74.5971 84.9051 32.6791 129.754 17.794L174.433 2.90881C203.191 -6.67244 234.175 8.89709 243.761 37.4697ZM821.666 383.25C836.194 383.25 850.127 377.482 860.4 367.214C870.673 356.947 876.444 343.021 876.444 328.5C876.444 313.98 870.673 300.054 860.4 289.786C850.127 279.519 836.194 273.75 821.666 273.75C807.138 273.75 793.205 279.519 782.932 289.786C772.66 300.054 766.888 313.98 766.888 328.5C766.888 343.021 772.66 356.947 782.932 367.214C793.205 377.482 807.138 383.25 821.666 383.25Z" fill="url(#paint0_linear_33_4)"/>
</g>
<defs>
<linearGradient id="paint0_linear_33_4" x1="55" y1="34.5" x2="803" y2="795" gradientUnits="userSpaceOnUse">
<stop stop-color="#FDAC41"/>
<stop offset="1" stop-color="#5A8DEE"/>
</linearGradient>
<clipPath id="clip0_33_4">
<rect width="986" height="876" fill="white"/>
</clipPath>
</defs>
</svg>
