<svg width="150" height="150" viewBox="0 0 150 150" fill="none" xmlns="http://www.w3.org/2000/svg">
<path d="M68.1377 124.187H108.575C131.7 124.187 137.45 118.437 137.45 95.3125C129.45 95.3125 123.013 88.8125 123.013 80.875C123.013 72.875 129.45 66.375 137.45 66.375V60.625C137.45 37.5 131.7 31.75 108.575 31.75H68.7002V74.1875" fill="#FDAC41"/>
<path d="M68.7127 105.437V124.187H51.4002C42.1502 124.187 36.7127 117.875 30.7127 103.375L29.5877 100.562C31.3946 99.8359 33.0389 98.7572 34.425 97.3892C35.8111 96.0211 36.9113 94.3911 37.6616 92.5939C38.4119 90.7968 38.7972 88.8683 38.7953 86.9208C38.7933 84.9733 38.4041 83.0457 37.6502 81.25C36.9103 79.4462 35.8215 77.8062 34.4464 76.4241C33.0713 75.042 31.4368 73.9449 29.6367 73.1959C27.8367 72.4468 25.9065 72.0605 23.9568 72.0591C22.0071 72.0576 20.0764 72.4411 18.2752 73.1875L17.2127 70.5C8.21271 48.5 11.3377 40.8125 33.3377 31.75L49.8377 25L68.7127 70.75V86.6875M51.0127 124.187H49.9502Z" fill="#5A8DEE"/>
</svg>
