<svg width="283" height="283" viewBox="0 0 283 283" fill="none" xmlns="http://www.w3.org/2000/svg">
<path d="M66.3875 154.235L66.2695 209.538C66.2695 224.513 77.8254 240.55 91.9754 245.267L129.591 257.766C136.076 259.888 146.807 259.888 153.41 257.766L191.025 245.267C205.175 240.55 216.731 224.513 216.731 209.538V154.825M252.342 176.875V106.125Z" fill="#5A8DEE"/>
<path d="M66.3875 154.235L66.2695 209.538C66.2695 224.513 77.8254 240.55 91.9754 245.267L129.591 257.766C136.076 259.888 146.807 259.888 153.41 257.766L191.025 245.267C205.175 240.55 216.731 224.513 216.731 209.538V154.825M252.342 176.875V106.125" stroke="#5A8DEE" stroke-width="1.5" stroke-linecap="round" stroke-linejoin="round"/>
<path d="M118.506 32.8328L47.5206 79.174C24.7627 94.0315 24.7627 127.284 47.5206 142.142L118.506 188.483C131.241 196.855 152.231 196.855 164.966 188.483L235.598 142.142C258.238 127.284 258.238 94.1494 235.598 79.2919L164.966 32.9507C152.231 24.4607 131.241 24.4607 118.506 32.8328Z" fill="#FDAC41" stroke="#FDAC41" stroke-width="1.5" stroke-linecap="round" stroke-linejoin="round"/>
</svg>
