<svg width="288" height="288" viewBox="0 0 288 288" fill="none" xmlns="http://www.w3.org/2000/svg">
<path d="M259.92 125.28L248.16 175.44C238.08 218.76 218.16 236.28 180.72 232.68C174.72 232.2 168.24 231.12 161.28 229.44L141.12 224.64C91.0802 212.76 75.6002 188.04 87.3602 137.88L99.1202 87.6C101.52 77.4 104.4 68.52 108 61.2C122.04 32.16 145.92 24.36 186 33.84L206.04 38.52C256.32 50.28 271.68 75.12 259.92 125.28Z" fill="#FDAC41"/>
<path d="M180.72 232.68C173.28 237.72 163.92 241.92 152.52 245.64L133.56 251.88C85.9202 267.24 60.8402 254.4 45.3602 206.76L30.0002 159.36C14.6402 111.72 27.3602 86.5199 75.0002 71.16L93.9602 64.92C98.8802 63.36 103.56 62.04 108 61.2C104.4 68.52 101.52 77.4 99.1202 87.6L87.3602 137.88C75.6002 188.04 91.0802 212.76 141.12 224.64L161.28 229.44C168.24 231.12 174.72 232.2 180.72 232.68Z" fill="#5A8DEE"/>
</svg>
